<svg width="22" height="22" fill="none" xmlns="http://www.w3.org/2000/svg"><circle cx="11.031" cy="11.009" r="10.482" fill="url(#paint0_linear)"/><path d="M14.482 6.816H8.108c-.72 0-1.268.548-1.268 1.268v6.374c0 .72.548 1.268 1.268 1.268h6.374c.72 0 1.268-.548 1.268-1.268V8.084c0-.72-.548-1.268-1.268-1.268zm-3.187 7.128c1.473 0 2.673-1.165 2.673-2.57 0-.24-.034-.514-.103-.72h.754v3.633a.343.343 0 01-.343.342H8.313a.343.343 0 01-.342-.342V10.62h.788a2.61 2.61 0 00-.103.72c-.034 1.439 1.165 2.604 2.639 2.604zm0-1.028c-.96 0-1.714-.754-1.714-1.68 0-.925.754-1.679 1.714-1.679s1.713.754 1.713 1.68c0 .96-.754 1.679-1.713 1.679zm3.29-3.667a.38.38 0 01-.377.377h-.96a.38.38 0 01-.377-.377v-.925a.38.38 0 01.377-.377h.96a.38.38 0 01.377.377v.925z" fill="#fff"/><defs><linearGradient id="paint0_linear" x1="5.004" y1="19.133" x2="18.893" y2="4.719" gradientUnits="userSpaceOnUse"><stop stop-color="#EEA054"/><stop offset=".503" stop-color="#D64763"/><stop offset="1" stop-color="#B62A99"/></linearGradient></defs></svg>