<svg width="22" height="22" fill="none" xmlns="http://www.w3.org/2000/svg"><circle cx="11.414" cy="11.009" r="10.482" fill="#55ACE3"/><path d="M16.97 8.336a4.532 4.532 0 01-1.205.314c.419-.262.786-.681.943-1.153a3.88 3.88 0 01-1.363.524 2.062 2.062 0 00-1.52-.681 2.103 2.103 0 00-2.096 2.096c0 .158 0 .315.052.472a6.178 6.178 0 01-4.35-2.201 2.386 2.386 0 00-.262 1.048c0 .734.367 1.363.943 1.73a1.81 1.81 0 01-.943-.262c0 .995.734 1.886 1.677 2.044-.157.052-.367.052-.576.052-.158 0-.262 0-.42-.052a2.092 2.092 0 001.992 1.467 4.17 4.17 0 01-2.62.891c-.158 0-.315 0-.525-.052.944.576 2.044.943 3.25.943 3.878 0 5.975-3.197 5.975-5.975V9.28c.42-.157.786-.524 1.048-.943z" fill="#fff"/></svg>