<svg width="22" height="22" fill="none" xmlns="http://www.w3.org/2000/svg"><circle cx="10.826" cy="11.009" r="10.482" fill="#7294C7"/><path d="M15.966 13.69c0-.044-.044-.044-.044-.087-.174-.348-.565-.784-1.088-1.262-.26-.218-.391-.392-.478-.479-.13-.174-.13-.305-.087-.479.043-.13.217-.348.522-.74.174-.217.261-.348.392-.478.652-.87.957-1.436.87-1.697l-.044-.044c-.043-.043-.087-.087-.174-.087a.482.482 0 00-.348 0H13.53l-.043.044c-.044.043-.044.043-.044.087-.174.479-.392.87-.61 1.305-.13.218-.26.436-.39.61-.131.174-.218.304-.305.391-.087.087-.174.13-.218.218-.043.043-.13.087-.13.043-.044 0-.088 0-.088-.043l-.13-.13c-.044-.044-.044-.131-.087-.218V8.468c0-.044-.044-.13-.044-.174l-.13-.13c-.044-.044-.13-.044-.174-.088a3.903 3.903 0 00-.783-.087c-.697 0-1.175.044-1.35.13-.086.044-.173.088-.217.175-.087.087-.087.13-.043.13.217.044.391.13.478.261l.044.088c.043.043.043.13.087.26.043.131.043.262.043.436v.696c0 .218-.043.348-.043.479 0 .13-.044.217-.087.26-.044.088-.044.131-.087.131 0 0 0 .044-.044.044-.043 0-.087.043-.174.043a.33.33 0 01-.174-.087.524.524 0 01-.218-.217 1.52 1.52 0 01-.26-.392c-.088-.174-.218-.348-.305-.61l-.087-.173a6.247 6.247 0 01-.218-.479c-.087-.217-.174-.391-.26-.61a.62.62 0 00-.131-.173h-.044s-.043-.044-.087-.044c-.043 0-.087-.043-.13-.043H5.478c-.174 0-.261.043-.305.087l-.043.043v.087c0 .044 0 .087.043.174.218.523.479 1.045.74 1.567.261.479.522.914.696 1.218.218.305.392.61.61.87.217.262.348.436.391.523l.174.174.13.13c.088.088.218.218.392.348.174.131.392.262.61.392.217.13.478.218.74.305.304.087.565.13.826.087h.653c.13 0 .217-.044.304-.13l.044-.044c0-.044.043-.044.043-.087v-.174c0-.174 0-.305.044-.436.043-.13.043-.217.087-.304a.6.6 0 01.13-.174l.088-.087h.043c.087-.044.218 0 .305.087.13.087.26.217.348.348.087.13.217.261.391.435.175.174.305.305.392.348l.13.087c.088.044.175.087.305.13.13.044.218.044.305.044l1.48-.043a.82.82 0 00.347-.087c.087-.044.13-.087.13-.174v-.174c-.086-.087-.086-.13-.086-.174z" fill="#fff"/></svg>