<svg width="22" height="22" viewBox="0 0 22 22" fill="none" xmlns="http://www.w3.org/2000/svg">
<circle cx="10.6191" cy="11.0088" r="10.4824" fill="#4E6297"/>
<path d="M15.3378 7.76882C15.3378 6.98399 14.6453 6.2915 13.8605 6.2915H7.90505C7.12022 6.2915 6.42773 6.98399 6.42773 7.76882V13.7242C6.42773 14.5091 7.12022 15.2016 7.90505 15.2016H10.9058V11.8314H9.79786V10.3541H10.9058V9.75396C10.9058 8.73831 11.6445 7.86115 12.5678 7.86115H13.7681V9.33846H12.5678C12.4293 9.33846 12.2908 9.47696 12.2908 9.75396V10.3541H13.7681V11.8314H12.2908V15.2016H13.8605C14.6453 15.2016 15.3378 14.5091 15.3378 13.7242V7.76882Z" fill="white"/>
</svg>
