<svg width="22" height="22" viewBox="0 0 22 22" fill="none" xmlns="http://www.w3.org/2000/svg">
<circle cx="11.0312" cy="11.0088" r="10.4824" fill="url(#paint0_linear)"/>
<path d="M14.4819 6.81592H8.10781C7.38815 6.81592 6.83984 7.36423 6.83984 8.08389V14.458C6.83984 15.1777 7.38815 15.726 8.10781 15.726H14.4819C15.2016 15.726 15.7499 15.1777 15.7499 14.458V8.08389C15.7499 7.36423 15.2016 6.81592 14.4819 6.81592ZM11.2949 13.944C12.7685 13.944 13.9679 12.7788 13.9679 11.3738C13.9679 11.1339 13.9336 10.8597 13.8651 10.6541H14.619V14.2867C14.619 14.458 14.4819 14.6294 14.2763 14.6294H8.31343C8.14208 14.6294 7.97074 14.4923 7.97074 14.2867V10.6198H8.75893C8.6904 10.8597 8.65613 11.0996 8.65613 11.3395C8.62186 12.7788 9.82129 13.944 11.2949 13.944ZM11.2949 12.9159C10.3353 12.9159 9.5814 12.162 9.5814 11.2367C9.5814 10.3114 10.3353 9.55747 11.2949 9.55747C12.2544 9.55747 13.0083 10.3114 13.0083 11.2367C13.0083 12.1962 12.2544 12.9159 11.2949 12.9159ZM14.5847 9.24905C14.5847 9.45466 14.4134 9.62601 14.2078 9.62601H13.2482C13.0426 9.62601 12.8713 9.45466 12.8713 9.24905V8.32377C12.8713 8.11816 13.0426 7.94681 13.2482 7.94681H14.2078C14.4134 7.94681 14.5847 8.11816 14.5847 8.32377V9.24905Z" fill="white"/>
<defs>
<linearGradient id="paint0_linear" x1="5.00386" y1="19.1327" x2="18.8931" y2="4.71934" gradientUnits="userSpaceOnUse">
<stop stop-color="#EEA054"/>
<stop offset="0.502762" stop-color="#D64763"/>
<stop offset="1" stop-color="#B62A99"/>
</linearGradient>
</defs>
</svg>
