<svg width="22" height="22" viewBox="0 0 22 22" fill="none" xmlns="http://www.w3.org/2000/svg">
<circle cx="11.4141" cy="11.0088" r="10.4824" fill="#55ACE3"/>
<path d="M16.97 8.33567C16.6031 8.49291 16.1839 8.59773 15.7646 8.65015C16.1839 8.38809 16.5507 7.96879 16.708 7.49708C16.2887 7.75914 15.8694 7.91638 15.3453 8.0212C14.9784 7.60191 14.4018 7.33984 13.8253 7.33984C12.6722 7.33984 11.7288 8.28326 11.7288 9.43633C11.7288 9.59356 11.7288 9.7508 11.7812 9.90803C10.0516 9.80321 8.47927 8.96462 7.43103 7.70673C7.2738 8.0212 7.16897 8.38808 7.16897 8.75497C7.16897 9.48874 7.53586 10.1177 8.11239 10.4846C7.74551 10.4846 7.43103 10.3797 7.16897 10.2225C7.16897 11.2183 7.90274 12.1093 8.84616 12.2666C8.68892 12.319 8.47928 12.319 8.26963 12.319C8.11239 12.319 8.00757 12.319 7.85033 12.2666C8.11239 13.1052 8.89857 13.7341 9.84199 13.7341C9.10822 14.3106 8.21722 14.6251 7.22139 14.6251C7.06415 14.6251 6.90691 14.6251 6.69727 14.5727C7.64068 15.1492 8.74134 15.5161 9.94681 15.5161C13.8253 15.5161 15.9218 12.319 15.9218 9.54115V9.27909C16.3411 9.12185 16.708 8.75497 16.97 8.33567Z" fill="white"/>
</svg>
