<svg width="22" height="22" viewBox="0 0 22 22" fill="none" xmlns="http://www.w3.org/2000/svg">
<circle cx="10.8262" cy="11.0088" r="10.4824" fill="#7294C7"/>
<path d="M15.9659 13.6896C15.9659 13.6461 15.9223 13.6461 15.9223 13.6026C15.7483 13.2545 15.3567 12.8193 14.8345 12.3407C14.5734 12.1231 14.4429 11.949 14.3558 11.862C14.2253 11.6879 14.2253 11.5574 14.2688 11.3834C14.3123 11.2528 14.4864 11.0352 14.791 10.6436C14.965 10.426 15.0521 10.2955 15.1826 10.165C15.8353 9.29468 16.1399 8.72899 16.0529 8.46791L16.0094 8.4244C15.9659 8.38088 15.9223 8.33737 15.8353 8.33737C15.7483 8.29386 15.6177 8.29386 15.4872 8.33737H13.8337C13.7902 8.33737 13.7902 8.33737 13.7031 8.33737C13.6596 8.33737 13.6161 8.33737 13.6161 8.33737H13.5726H13.5291L13.4856 8.38088C13.442 8.4244 13.442 8.42439 13.442 8.46791C13.268 8.94656 13.0504 9.33819 12.8328 9.77333C12.7023 9.9909 12.5718 10.2085 12.4412 10.3825C12.3107 10.5566 12.2236 10.6871 12.1366 10.7742C12.0496 10.8612 11.9626 10.9047 11.919 10.9917C11.8755 11.0352 11.7885 11.0788 11.7885 11.0352C11.745 11.0352 11.7015 11.0352 11.7015 10.9917C11.658 10.9482 11.6145 10.9047 11.5709 10.8612C11.5274 10.8177 11.5274 10.7306 11.4839 10.6436C11.4839 10.5566 11.4839 10.4696 11.4839 10.426C11.4839 10.3825 11.4839 10.252 11.4839 10.165C11.4839 10.0344 11.4839 9.94739 11.4839 9.90387C11.4839 9.77333 11.4839 9.59928 11.4839 9.42522C11.4839 9.25117 11.4839 9.12062 11.4839 9.03359C11.4839 8.94656 11.4839 8.81602 11.4839 8.729C11.4839 8.59845 11.4839 8.51142 11.4839 8.46791C11.4839 8.42439 11.4404 8.33737 11.4404 8.29385C11.3969 8.25034 11.3534 8.20683 11.3099 8.16331C11.2663 8.1198 11.1793 8.1198 11.1358 8.07628C10.9182 8.03277 10.6572 7.98926 10.3526 7.98926C9.65633 7.98926 9.17767 8.03277 9.00361 8.1198C8.91659 8.16332 8.82956 8.20683 8.78604 8.29385C8.69902 8.38088 8.69901 8.4244 8.74253 8.4244C8.9601 8.46791 9.13416 8.55494 9.22118 8.68548L9.2647 8.77251C9.30821 8.81603 9.30821 8.90305 9.35172 9.03359C9.39524 9.16413 9.39524 9.29468 9.39524 9.46873C9.39524 9.72982 9.39524 9.9909 9.39524 10.165C9.39524 10.3825 9.35172 10.5131 9.35172 10.6436C9.35172 10.7742 9.30821 10.8612 9.2647 10.9047C9.22119 10.9917 9.22118 11.0352 9.17767 11.0352C9.17767 11.0352 9.17766 11.0788 9.13415 11.0788C9.09064 11.0788 9.04713 11.1223 8.9601 11.1223C8.91658 11.1223 8.82956 11.0788 8.78604 11.0352C8.69902 10.9917 8.61199 10.9047 8.56847 10.8177C8.48145 10.7306 8.39441 10.6001 8.30739 10.426C8.22036 10.252 8.08981 10.0779 8.00278 9.81685L7.91576 9.64279C7.87225 9.55576 7.78522 9.38171 7.69819 9.16414C7.61116 8.94657 7.52413 8.77251 7.43711 8.55494C7.39359 8.46791 7.35008 8.4244 7.30657 8.38088H7.26305C7.26305 8.38088 7.21953 8.33737 7.17602 8.33737C7.1325 8.33737 7.089 8.29385 7.04548 8.29385H5.47897C5.30492 8.29385 5.21789 8.33737 5.17438 8.38088L5.13086 8.4244C5.13086 8.4244 5.13086 8.46791 5.13086 8.51143C5.13086 8.55494 5.13086 8.59845 5.17438 8.68548C5.39195 9.20765 5.65303 9.72982 5.91411 10.252C6.1752 10.7306 6.43628 11.1658 6.61034 11.4704C6.82791 11.775 7.00196 12.0796 7.21954 12.3407C7.43711 12.6017 7.56764 12.7758 7.61116 12.8628C7.69819 12.9499 7.7417 12.9934 7.78521 13.0369L7.91576 13.1674C8.00279 13.2545 8.13333 13.385 8.30739 13.5155C8.48144 13.6461 8.69901 13.7766 8.91658 13.9072C9.13415 14.0377 9.39524 14.1247 9.65632 14.2118C9.96092 14.2988 10.222 14.3423 10.4831 14.2988H11.1358C11.2663 14.2988 11.3534 14.2553 11.4404 14.1683L11.4839 14.1247C11.4839 14.0812 11.5274 14.0812 11.5274 14.0377C11.5274 13.9942 11.5274 13.9507 11.5274 13.8637C11.5274 13.6896 11.5274 13.5591 11.5709 13.4285C11.6145 13.298 11.6145 13.2109 11.658 13.1239C11.7015 13.0369 11.745 12.9934 11.7885 12.9499C11.832 12.9063 11.8755 12.8628 11.8755 12.8628H11.919C12.0061 12.8193 12.1366 12.8628 12.2237 12.9499C12.3542 13.0369 12.4847 13.1674 12.5718 13.298C12.6588 13.4285 12.7893 13.5591 12.9634 13.7331C13.1375 13.9072 13.268 14.0377 13.355 14.0812L13.4856 14.1683C13.5726 14.2118 13.6596 14.2553 13.7902 14.2988C13.9207 14.3423 14.0077 14.3423 14.0947 14.3423L15.5742 14.2988C15.7048 14.2988 15.8353 14.2553 15.9223 14.2118C16.0094 14.1683 16.0529 14.1247 16.0529 14.0377C16.0529 13.9942 16.0529 13.9072 16.0529 13.8637C15.9659 13.7766 15.9659 13.7331 15.9659 13.6896Z" fill="white"/>
</svg>
